<?xml version="1.0" standalone="no"?>
<!DOCTYPE svg PUBLIC "-//W3C//DTD SVG 20010904//EN"
 "http://www.w3.org/TR/2001/REC-SVG-20010904/DTD/svg10.dtd">
<svg version="1.0" xmlns="http://www.w3.org/2000/svg"
 width="1785.000000pt" height="1785.000000pt" viewBox="0 0 1785.000000 1785.000000"
 preserveAspectRatio="xMidYMid meet">
<metadata>
Created by potrace 1.11, written by Peter Selinger 2001-2013
</metadata>
<g transform="translate(0.000000,1785.000000) scale(0.100000,-0.100000)"
fill="#000000" stroke="none">
<path d="M15188 13315 c-2 -1 -29 -5 -61 -9 -324 -34 -611 -139 -896 -328
-147 -97 -281 -217 -426 -383 -90 -102 -1598 -1610 -1690 -1690 -83 -72 -178
-165 -223 -220 -47 -57 -563 -575 -646 -649 -94 -82 -168 -157 -246 -246 -70
-81 -445 -460 -454 -460 -10 0 -1207 1202 -1281 1285 -86 97 -171 182 -255
255 -35 30 -69 61 -76 68 -7 6 -15 12 -18 12 -2 0 -45 27 -93 59 -251 168
-533 272 -853 316 -124 17 -398 16 -530 -1 -496 -66 -937 -306 -1265 -688 -33
-39 -345 -355 -693 -704 -557 -557 -635 -632 -650 -620 -38 31 -1253 1252
-1312 1318 -94 106 -192 203 -291 285 -26 22 -207 145 -213 145 -2 0 -32 16
-65 35 -205 115 -451 195 -711 229 -103 14 -423 15 -500 2 -19 -4 -48 -9 -65
-12 -16 -3 -43 -8 -60 -10 -47 -8 -143 -33 -229 -60 -348 -109 -681 -333 -919
-619 -79 -95 -78 -93 -197 -275 -54 -83 -180 -386 -205 -494 -51 -220 -64
-334 -59 -551 1 -99 6 -196 9 -215 21 -122 37 -202 46 -232 6 -18 12 -44 15
-58 27 -139 184 -466 290 -606 13 -17 24 -34 24 -38 0 -20 194 -224 310 -326
46 -41 702 -693 1457 -1448 754 -754 1375 -1372 1378 -1372 4 0 35 -22 69 -49
284 -225 658 -380 1013 -420 117 -13 376 -11 483 4 371 52 698 190 985 416 36
28 65 48 65 45 0 -3 351 345 780 774 l780 780 778 -777 c428 -428 784 -779
791 -781 8 -1 34 -20 60 -41 245 -202 622 -367 931 -407 19 -2 64 -8 100 -13
68 -9 414 -8 440 2 8 3 38 8 65 11 42 5 103 17 209 41 27 6 177 55 201 65 11
5 49 21 85 36 268 115 529 308 720 534 30 36 57 67 60 70 3 3 23 29 44 58 41
57 1512 1534 1610 1617 72 60 190 177 229 225 42 52 539 551 637 639 112 101
170 159 260 261 41 47 425 435 853 863 l777 778 33 -24 c42 -32 120 -70 177
-86 25 -7 57 -17 72 -21 42 -13 197 -8 258 7 254 66 473 290 603 619 35 86 81
244 91 309 4 28 14 91 23 140 8 49 10 367 3 433 -60 523 -284 914 -610 1066
-30 14 -60 26 -66 26 -7 0 -19 15 -28 33 -85 168 -224 356 -376 505 -312 308
-713 500 -1155 557 -85 11 -387 19 -397 10z"/>
</g>
</svg>
